<?xml version="1.0" encoding="utf-8" ?><svg xmlns="http://www.w3.org/2000/svg" xmlns:xlink="http://www.w3.org/1999/xlink" width="500" height="500" viewBox="0 0 500 500"><path fill="white" d="M0 0L500 0L500 500L0 500L0 0Z"/><path fill="#FB0498" d="M207.565 201.12C226.258 200.618 236.837 214.64 230.72 232.882C229.792 235.652 226.343 238.545 223.283 238.469C210.438 237.59 221.816 223.279 215.442 216.712C210.141 211.251 199.136 213.189 193.819 217.753C185.487 225.359 185.279 238.034 184.062 248.444C183.148 256.018 182.667 266.932 180.97 274.148C195.698 276.354 215.35 286.019 228.51 276.51C230.31 275.209 235.436 270.098 237.303 270.273C241.417 272.324 240.313 277.785 238.397 280.935C234.61 287.159 227.579 292.64 220.469 294.374C204.12 298.675 191.944 289.829 177.081 285.218C175.826 287.065 174.944 288.151 173.431 289.944C167.026 297.532 149.509 298.1 146.58 287.009C146.002 284.82 147 281.337 148.436 279.585C152.875 273.791 160.247 273.046 166.962 272.75C167.575 265.265 167.965 257.066 168.371 249.478C169.197 234.062 169.867 220.891 182.395 209.948C184.502 208.107 186.856 206.817 188.685 205.309L188.894 205.304C189.663 205.213 189.711 205.175 190.446 204.899C191.114 204.134 190.892 204.57 191.065 203.508C192.222 203.503 192.69 203.445 193.836 203.255C199.283 201.784 202.037 201.427 207.565 201.12Z"/><path fill="#CD0D77" d="M193.836 203.255C199.283 201.784 202.037 201.427 207.565 201.12C208.595 201.327 208.466 201.127 208.981 201.762C208.552 203.5 205.032 203.954 203.465 204.18C202.829 202.901 196.389 205.273 193.836 203.255Z"/><path fill="#320027" d="M191.065 203.508C192.222 203.503 192.69 203.445 193.836 203.255C196.389 205.273 202.829 202.901 203.465 204.18C199.173 205.311 193.31 206.166 188.894 205.304C189.663 205.213 189.711 205.175 190.446 204.899C191.114 204.134 190.892 204.57 191.065 203.508Z"/><path d="M94.9666 234.138C94.9232 231.995 95.0131 229.852 95.2358 227.72C96.8823 212.017 105.148 198.685 117.219 188.656C119.059 187.127 125.723 182.218 127.793 182.484C136.605 184.005 145.377 189.383 153.772 192.681C166.096 197.523 177.808 202.048 191.065 203.508C190.892 204.57 191.114 204.134 190.446 204.899C189.711 205.175 189.663 205.213 188.894 205.304L188.685 205.309C180.483 205.037 174.098 202.907 166.255 200.856C154.571 197.8 136.931 190.078 125.218 194.441C117.112 197.461 110.96 206 107.626 213.549C101.703 227.217 101.375 242.663 106.715 256.57C117.696 252.959 129.114 250.581 139.58 245.451C142.081 244.598 146.662 241.004 144.127 237.79C138.775 231.002 125.052 232.267 117.377 229.703C112.529 228.083 110.09 225.934 111.884 221.106C114.988 212.758 123.396 207.146 131.08 203.486L131.481 204.005C124.724 207.79 117.44 213.051 115.071 221.044C112.417 229.995 130.49 229.42 135.88 231.374C139.906 232.834 145.091 233.073 147.818 237.329C150.619 241.429 146.392 244.823 143.092 246.661C133.558 251.836 122.759 254.067 112.798 258.181C111.533 258.703 109.623 260.035 109.232 261.443C109.418 261.957 109.424 262.108 109.939 262.371C115.015 264.969 137.858 256.43 144.312 258.985C144.977 259.248 145.316 259.696 145.709 260.27C145.747 262.043 138.866 264.438 137.405 266.543L137.467 267.074C138.842 268.015 141.577 267.625 143.326 267.527C141.181 268.063 134.687 270.277 134.233 267.147C135.615 263.846 143.889 262.502 144.913 260.171C142.672 256.923 116.807 265.751 111.932 266.872C121.305 281.913 132.89 294.595 147.571 304.656C149.772 306.165 154.071 308.982 156.424 309.806L156.552 310.044C156.393 310.346 156.298 310.401 156.063 310.659C154.938 310.724 154.114 310.277 153.042 309.861C135.706 301.388 118.968 283.624 107.952 268.133C105.056 268.858 102.146 269.521 99.2218 270.121L98.4659 270.159C96.0519 271.095 88.7161 272.016 86.3375 271.113C77.1487 267.623 94.3438 260.841 96.3544 259.974C94.9183 255.652 94.5009 238.877 94.9666 234.138Z"/><path fill="white" d="M96.3544 259.974C94.9183 255.652 94.5009 238.877 94.9666 234.138C95.267 236.495 94.8716 238.785 95.2087 241.063L95.5374 241.321L95.9495 241.247C97.1565 247.355 99.0669 252.596 101.788 258.18C100.817 258.509 98.0758 259.504 97.2235 259.582L96.3544 259.974Z"/><path fill="#040A06" d="M96.3544 259.974C94.9183 255.652 94.5009 238.877 94.9666 234.138C95.267 236.495 94.8716 238.785 95.2087 241.063L95.5374 241.321L95.9495 241.247C95.3267 243.935 96.8128 256.423 97.2235 259.582L96.3544 259.974Z"/><path fill="#FB0498" d="M224.839 303.845C242.096 302.648 311.953 298.648 324.656 303.685C325.642 304.855 324.665 305.817 323.781 306.687C324.421 307.13 353.973 307.277 357.407 307.426C358.446 307.579 358.978 307.678 359.748 307.013L360.06 307.368L360.401 307.402C361.645 307.535 362.988 307.709 363.913 308.638C364.093 309.487 364.149 309.095 363.756 309.855C361.716 310.599 343.359 309.647 339.726 309.591L298.679 309.268C291.993 309.249 282.895 309.02 276.448 309.328L275.943 309.246L270.692 309.275C270.397 309.273 269.246 309.085 268.888 309.035L268.078 309.245C266.064 309.361 263.567 309.593 261.604 309.584C260.551 309.649 259.17 309.775 258.144 309.731L255.791 309.739L254.044 309.68C252.121 310.285 250.515 309.88 248.475 309.959L248.419 307.59C249.063 307.586 250.008 307.492 250.676 307.445C253.962 306.083 266.205 305.785 270.076 305.489C271.094 305.412 274.182 305.909 275.006 305.542C276.664 304.804 280.358 305.072 281.539 304.66C277.169 304 272.469 305.4 267.886 304.049C267.461 303.88 229.241 306.269 223.899 306.198L224.839 303.845Z"/><path fill="#FE99F4" d="M267.886 304.049C272.044 304.114 300.75 303.755 301.921 304.463C299.865 305.719 280.805 304.484 277.857 305.698C277.865 307.718 277.994 307.934 276.448 309.328L275.943 309.246L270.692 309.275C270.397 309.273 269.246 309.085 268.888 309.035L268.078 309.245C266.064 309.361 263.567 309.593 261.604 309.584C260.551 309.649 259.17 309.775 258.144 309.731L255.791 309.739L254.044 309.68C252.121 310.285 250.515 309.88 248.475 309.959L248.419 307.59C249.063 307.586 250.008 307.492 250.676 307.445C253.962 306.083 266.205 305.785 270.076 305.489C271.094 305.412 274.182 305.909 275.006 305.542C276.664 304.804 280.358 305.072 281.539 304.66C277.169 304 272.469 305.4 267.886 304.049Z"/><path fill="#FF7FD8" d="M265.302 306.24C266.902 305.843 266.951 306.371 268.258 306.315C268.159 307.244 267.991 308.331 268.078 309.245C266.064 309.361 263.567 309.593 261.604 309.584C261.596 308.935 261.814 308.157 261.958 307.508L261.804 306.247C262.766 306.272 264.406 306.369 265.302 306.24Z"/><path fill="#FF7FD8" d="M250.676 307.445C252.024 307.892 252.381 307.743 253.751 307.392L254.268 307.569C254.565 308.296 254.269 308.885 254.044 309.68C252.121 310.285 250.515 309.88 248.475 309.959L248.419 307.59C249.063 307.586 250.008 307.492 250.676 307.445Z"/><path fill="#FB0498" d="M270.692 309.275C271.795 307.745 273.229 306.084 275.196 305.718C276.565 306.299 275.705 307.669 275.943 309.246L270.692 309.275Z"/><path fill="#FB0498" d="M259.859 306.397C259.958 307.595 260.226 308.331 259.773 309.285C259.082 309.63 258.9 309.611 258.144 309.731L255.791 309.739C256.274 306.493 256.81 306.871 259.859 306.397Z"/><path fill="#FB0498" d="M268.258 306.315C269.12 306.052 269.652 305.802 270.544 305.923L270.878 306.299C270.517 307.588 269.86 308.056 268.888 309.035L268.078 309.245C267.991 308.331 268.159 307.244 268.258 306.315Z"/><path d="M268.088 258.008C270.338 258.063 272.742 258.025 275.005 258.03C277.091 263.579 279.601 269.08 281.692 274.669C283.964 269.152 286.173 263.61 288.318 258.042L295.229 258.07C295.328 265.986 295.246 274.067 295.248 281.996L289.405 282L289.42 275.688C289.434 272.911 289.427 270.135 289.396 267.359C288.282 271.368 285.585 277.794 284.097 282.012C282.463 282.012 280.829 281.995 279.195 281.96C277.856 277.501 275.465 271.719 273.814 267.171C274.074 271.957 273.978 277.152 273.974 281.975L268.042 281.978C268.286 274.818 268.311 265.199 268.088 258.008Z"/><path d="M318.095 258.082C320.087 258.051 322.078 258.042 324.07 258.055C325.983 261.885 331.223 268.799 333.757 273.09C333.549 268.485 333.721 262.805 333.757 258.109L339.505 258.052L339.541 273.278C339.545 275.807 339.651 279.579 339.42 282.002C337.199 282.023 335.643 282.054 333.419 281.783C331.008 277.352 326.787 271.86 323.995 267.148C323.958 272.086 323.967 277.025 324.022 281.962L318.154 282.003C318.135 274.327 318.351 265.677 318.095 258.082Z"/><path d="M244.032 258.021C245.888 258.068 247.89 258.024 249.758 258.019C249.861 260.984 247.289 282.378 256.853 275.741C259.058 274.211 258.263 261.553 258.265 258.038C260.174 258.036 262.104 258.073 264.014 258.094L264.033 263.188C264.078 267.82 264.862 275.4 261.705 279.065C258.018 283.096 250.412 283.268 246.59 279.415C243.452 276.252 244.067 270.476 243.988 266.35C243.936 263.651 244.014 260.76 244.032 258.021Z"/><path d="M386.872 255.869C391.761 255.077 396.384 258.344 397.271 263.217C398.158 268.09 394.982 272.776 390.127 273.758C386.902 274.411 383.575 273.269 381.43 270.774C379.284 268.278 378.654 264.818 379.783 261.727C380.912 258.635 383.623 256.395 386.872 255.869Z"/><path fill="white" d="M387.266 258.055C390.649 258.074 394.028 259.774 395.118 263.16C395.633 264.795 395.455 266.569 394.624 268.069C393.541 270.066 392.028 270.97 389.954 271.614C386.082 271.525 382.174 270.059 381.359 265.783C381.038 264.092 381.408 262.344 382.386 260.928C383.636 259.138 385.22 258.428 387.266 258.055Z"/><path d="M299.187 258.018C303.933 258.123 308.992 258.07 313.759 258.094L313.724 262.731L304.945 262.754L304.955 267.512L312.748 267.557L312.713 272.028L304.981 272.125L304.934 274.438C304.922 275.501 304.846 276.157 305.155 277.172C306.606 277.416 311.988 277.333 313.731 277.336L313.75 281.982C308.912 282.058 303.909 281.998 299.058 282C299.316 274.247 299.113 265.872 299.187 258.018Z"/><path fill="#FB0498" d="M156.424 309.806C176.771 308.317 197.193 305.455 217.617 304.321C219.031 304.242 221.342 303.77 222.502 304.646C222.65 305.496 222.664 305.048 222.111 306.019C219.675 307.525 198.505 307.659 194.359 308.618C190.004 309.625 161.563 310.7 159.731 311.915C158.329 311.474 158.075 311.371 156.832 310.592L156.552 310.044L156.424 309.806Z"/><path d="M377.56 180.18C378.777 181.01 381.806 184.11 382.446 185.408C385.654 191.915 381.311 195.089 375.313 193.11C374.652 195.979 373.797 198.491 373.219 201.475C372.289 200.663 371.95 200.173 371.2 199.214L372.154 195.94C372.595 194.376 373.076 192.824 373.596 191.285C372.977 190.562 372.241 189.806 371.587 189.103C369.822 190.788 368.071 192.441 366.374 194.197L364.61 192.493C368.535 188.701 373.92 184.09 377.56 180.18Z"/><path fill="white" d="M377.681 183.42L378.246 183.508C380.162 185.1 382.739 187.659 380.653 190.559C379.977 191.499 378.653 191.709 377.54 191.785C375.606 190.869 374.482 189.414 373.02 187.847C374.451 186.392 376.181 184.835 377.681 183.42Z"/><path d="M381.302 215.302C384.57 215.597 398.064 216.227 400.001 217.798C400.498 218.202 400.637 218.499 400.732 219.113C400.112 220.74 394.037 224.325 392.207 225.53C390.584 226.575 386.809 229.684 385.382 230.081C382.685 228.413 386.728 226.463 387.938 225.752C387.308 223.219 386.692 220.682 386.092 218.142C384.694 217.998 382.918 218.039 381.843 217.409C381.309 216.755 381.373 216.164 381.302 215.302Z"/><path fill="white" d="M388.129 218.238C389.895 218.59 395.429 218.911 397.639 219.135L394.61 221.171L389.706 224.484C388.901 222.092 388.614 220.737 388.129 218.238Z"/><path d="M293.159 167.234C293.718 167.491 305.99 179.66 306.424 180.506C305.967 181.154 305.274 181.302 304.504 181.605L301.551 178.626L299.478 179.53C297.811 180.375 296.132 181.194 294.441 181.987C294.538 183.456 294.7 185.01 294.827 186.484L292.512 186.983C292.225 181.806 291.438 173.448 290.723 168.391L293.159 167.234Z"/><path fill="white" d="M293.279 170.835C294.293 171.158 298.875 175.885 299.684 177.006L299.505 177.494L298.431 177.987C297.049 178.65 295.67 179.321 294.297 180.002C293.778 177.074 293.66 173.844 293.279 170.835Z"/><path d="M366.35 281.763C366.398 281.799 366.777 282.049 366.789 282.096C367.901 286.286 370.552 296.024 371.716 299.559L369.592 301.441C367.37 299.766 364.433 297.863 362.096 296.259C360.264 295 355.056 292.109 354.585 290.296C354.917 289.52 354.65 289.789 355.395 289.443C356.926 289.629 358.103 290.683 359.428 291.591C361.247 290.078 363.784 288.366 365.745 286.963C364.901 284.417 363.739 283.278 366.35 281.763Z"/><path fill="white" d="M365.887 289.193L366.308 289.322C367.215 291.839 368.071 295.397 368.902 298.092L366.389 296.432C364.64 295.318 362.691 293.891 360.968 292.694C362.571 291.517 364.262 290.349 365.887 289.193Z"/><path d="M331.429 160.118C332.2 160.173 332.625 160.227 333.39 160.354C334.633 161.313 339.644 173.739 340.541 175.897C341.6 171.871 342.137 167.623 342.765 163.516C342.937 162.388 343.875 162.021 344.939 162.2C345.631 163.355 342.824 177.519 342.423 180.077C341.403 180.025 341.306 180.041 340.368 179.687C339.12 178.447 333.779 165.623 333.33 163.547C332.952 165.482 331.056 177.488 330.537 177.97C329.739 177.936 329.38 177.993 328.693 177.582C328.456 175.472 331.085 163.609 331.405 160.379L331.429 160.118Z"/><path d="M389.363 193.756C389.435 193.777 389.517 193.779 389.58 193.821C389.94 194.059 390.151 194.345 390.286 194.743C390.947 196.702 384.231 208.344 382.859 210.832C385.259 209.538 393.134 204.867 395.196 204.338C396.02 204.599 395.698 204.372 396.231 204.989C395.957 206.981 383.377 213.276 380.942 214.499C378.528 213.282 381.209 209.526 382.072 207.908C383.929 204.421 385.725 200.949 387.489 197.411C384.18 199.477 379.041 202.125 375.505 204.153C375.334 204.116 375.162 204.079 374.99 204.042C374.495 203.368 374.317 203.223 374.175 202.386C375.431 201.085 387.114 194.999 389.363 193.756Z"/><path d="M375.091 270.367C375.651 270.4 376.144 270.43 376.609 270.773C381.066 274.052 385.52 277.983 389.815 281.471C389.308 282.027 388.785 282.711 388.309 283.307C382.76 282.358 376.771 282.347 371.025 281.318C374.261 283.805 378.785 287.407 381.743 290.353C382.085 290.694 381.896 290.896 381.786 291.581L380.734 292.06C379.379 291.705 368.26 282.068 367.22 280.539L367.41 280.137C369.67 278.512 382.222 280.518 385.577 281.029C383.5 279.469 376.317 273.606 374.863 272.029C374.628 271.102 374.681 271.425 375.091 270.367Z"/><path d="M391.618 230.54C393.157 230.412 394.699 230.273 396.217 230.645C398.581 231.217 400.623 232.702 401.894 234.776C403.119 236.855 403.47 239.335 402.869 241.672C402.386 243.567 399.797 247.643 397.572 247.005L397.35 246.477C397.76 243.691 399.598 243.908 400.572 241.881C402.346 238.187 399.809 234.69 396.629 233.103C391.687 231.844 386.945 234.274 386.614 239.658C386.478 241.887 391.434 245.36 389.98 247.035C384.621 247.062 381.162 234.112 391.618 230.54Z"/><path d="M255.972 208.037C256.942 207.916 257.562 207.768 258.327 208.433C257.791 210.562 254.603 210.33 253.788 213.07C253.021 214.365 254.048 217.028 255.732 217.113C259.381 217.495 261.691 208.963 265.858 210.511C271.955 212.776 270.285 219.652 265.366 222.211C264.592 222.401 263.846 222.65 263.134 222.35C262.839 221.662 262.958 221.491 263.099 220.744C264.159 219.401 265.263 220.106 266.273 219.291C269.485 216.699 266.832 210.861 263.197 213.659C261.305 215.362 258.664 220.637 255.385 219.515C249.543 217.517 250.977 210.329 255.972 208.037Z"/><path d="M249.252 222.597C249.831 222.661 249.884 222.691 250.44 222.884C251.175 224.207 250.336 228.464 250.152 230.238C252.199 230.455 254.085 230.651 256.12 230.998C256.309 228.956 256.271 226.213 257.623 224.689L258.042 224.733C258.967 226.343 258.256 229.352 257.961 231.235C260.062 231.472 262.083 231.697 264.174 232.035C264.312 230.142 264.56 228.408 264.821 226.527L265.081 225.28C265.69 224.676 265.343 224.834 266.098 224.683L266.482 225.104C266.946 227.467 266.054 232.075 265.684 234.604C259.763 233.799 253.835 233.04 247.903 232.326C248.345 228.98 248.607 225.937 249.252 222.597Z"/><path d="M281.03 173.392L281.694 173.582C282.47 174.945 287.527 189.81 287.968 191.543L285.802 192.871C281.164 190.339 276.549 187.632 271.888 185.076C271.051 184.631 270.181 184.246 269.526 183.573C269.674 182.812 269.499 183.163 270.25 182.594C272.743 182.157 282.32 188.414 285.369 190.122C283.729 185.828 281.309 179.639 280.167 175.111C279.993 174.419 280.609 173.883 281.03 173.392Z"/><path d="M365.386 171.162C367.296 172.166 370.705 174.648 372.518 176.011C373.13 176.47 373.167 176.927 373.175 177.586L372.882 177.739C370.965 177.53 368.018 175.171 366.442 173.987C365.153 175.765 364.129 177.18 363.003 179.082C364.767 180.228 366.942 181.379 367.851 183.264L367.667 183.599C365.721 183.587 363.523 181.793 361.89 180.661L360.787 182.112C359.965 183.24 359.103 184.578 358.309 185.747C359.748 186.655 364.299 188.973 363.863 190.769L363.403 191.016C361.461 190.532 356.979 187.069 355.166 185.774C356.766 184.239 363.902 173.516 365.386 171.162Z"/><path fill="#040A06" d="M98.4659 270.159L99.2218 270.121C100.867 277.631 102.815 285.071 105.062 292.423C109.233 305.984 119.624 332.031 116.16 345.675C115.841 343.876 116.063 339.11 115.873 336.859C115.459 331.986 114.556 327.866 113.347 323.128C109.66 308.681 104.446 294.652 100.692 280.229C100.145 278.131 98.5039 272.093 98.4659 270.159Z"/><path d="M247.917 236.888C248.562 236.846 248.617 236.869 249.261 236.975C250.032 238.101 249.966 242.885 250.057 244.546C252.078 244.509 254.018 244.376 256.031 244.243C255.973 241.718 255.484 240.238 256.409 237.819L256.875 237.634C257.963 238.996 257.93 242.276 258.027 244.103C259.568 244.043 260.804 243.936 262.337 243.773C263.473 243.771 265.369 243.423 266.048 243.86C266.355 244.789 266.33 244.744 266.177 245.725C265.582 246.234 250.493 246.896 248.241 247.02C248.292 244.285 247.418 239.179 247.917 236.888Z"/><path d="M163.595 182.069C175.939 183.838 184.565 186.084 194.426 194.453L193.725 194.764C185.283 189.223 176.725 186.29 166.609 186.247C165.686 184.359 164.967 183.617 163.595 182.069Z"/><path d="M262.459 192.091C265.028 193.179 262.494 195.645 261.402 197.202C263.299 198.323 274.405 204.688 274.774 205.848C274.515 206.509 274.465 206.821 273.91 207.267C272.835 207.105 271.392 206.046 270.402 205.428L260.24 199.148C259.56 200.305 258.134 203.504 256.777 203.096L256.594 202.481C257.067 200.035 260.912 194.448 262.459 192.091Z"/><path d="M349.802 164.12C351.899 164.523 359.043 167.566 360.884 168.704C361.243 169.482 361.206 169.092 361.017 169.911L360.479 170.145C359.1 169.974 357.442 169.087 356.121 168.479C355.157 171.323 353.094 175.798 351.869 178.687C351.356 179.952 350.499 182.714 349.362 183.27C347.05 182.237 349.29 178.68 350.069 176.82C351.359 173.742 352.723 170.673 354.042 167.605C351.811 166.628 349.627 166.815 349.802 164.12Z"/><path d="M149.797 176.5C156.255 176.604 165.069 183.549 167.33 189.597C166.697 189.221 164.745 186.441 163.935 185.612C162.152 183.784 161.015 182.897 158.889 181.499C157.529 180.657 156.156 180.03 154.756 179.306C150.405 177.058 149.344 180.474 147.457 183.665C144.801 184.009 140.049 183.878 137.283 183.811C139.701 182.897 143.661 182.631 145.439 181.568C147.636 180.255 146.236 177.965 149.797 176.5Z"/><path d="M352.667 290.587C354.421 295.34 357.668 302.098 359.748 307.013C358.978 307.678 358.446 307.579 357.407 307.426C355.593 302.811 353.161 298.152 351.406 293.462C349.746 294.108 346.591 295.95 344.942 295.191L345.009 294.71C346.612 293.041 350.13 291.962 352.395 290.737L352.667 290.587Z"/><path d="M305.477 162.447C305.66 162.624 305.843 162.801 306.025 162.978C306.968 166.683 309.024 174.965 309.637 178.204C310.982 177.878 315.01 176.665 315.908 177.172C316.155 178.105 316.176 177.664 315.891 178.545C315.356 178.795 315.275 178.802 314.694 178.934C312.382 179.512 310.174 179.855 307.941 180.716C306.905 176.709 304.408 167.219 303.896 163.536C304.312 162.785 304.502 162.907 305.477 162.447Z"/><path d="M323.549 160.072C324.412 160.079 325.157 159.948 325.696 160.425C326.12 164.019 325.971 173.963 326.007 178.017C325.064 178.04 324.808 178.031 323.879 177.893C323.316 177.258 323.536 161.97 323.549 160.072Z"/><path d="M383.657 249.143C388.197 249.97 396.596 251.676 400.905 252.914C401.42 253.83 401.215 253.89 401.182 255.134C397.976 254.615 386.877 252.411 383.735 251.486C383.377 250.769 383.575 249.981 383.657 249.143Z"/><path d="M266.298 187.069C267.954 187.73 278.468 196.713 280.073 198.352C280.114 199.264 280.071 198.995 279.236 199.93C278.206 200.018 266.666 190.278 265.55 188.79C265.582 187.83 265.669 188.017 266.298 187.069Z"/><path fill="#FB0498" d="M224.425 309.357C228.736 308.903 233.053 308.509 237.375 308.176L237.022 311.006C233.248 311.422 229.469 311.794 225.686 312.12L225.197 312.02C224.602 311.395 224.625 310.393 224.425 309.357Z"/><path fill="#FB0498" d="M153.042 309.861C154.114 310.277 154.938 310.724 156.063 310.659C156.298 310.401 156.393 310.346 156.552 310.044L156.832 310.592C156.39 311.665 156.317 311.36 156.638 312.171C154.579 311.79 150.932 312.204 148.771 312.32C144.018 312.576 139.06 313.059 134.302 312.652C139.011 310.659 143.968 311.143 148.993 310.528C150.329 310.365 151.828 310.373 153.042 309.861Z"/><path d="M156.832 310.592C158.075 311.371 158.329 311.474 159.731 311.915C166.045 314.952 172.681 317.762 179.456 319.602L178.463 320.102C173.182 318.387 167.897 317.051 162.82 314.694C160.88 313.793 158.663 312.831 156.638 312.171C156.317 311.36 156.39 311.665 156.832 310.592Z"/><path fill="#FB0498" d="M244.28 310.18C242.306 310.177 240.268 311.198 238.533 310.631C237.724 306.565 243.074 308.198 245.345 308.022C245.007 309.088 244.908 309.25 244.28 310.18Z"/><path fill="#FF7FD8" d="M220.685 309.772C222.295 309.826 222.886 309.669 224.425 309.357C224.625 310.393 224.602 311.395 225.197 312.02L225.686 312.12C224.471 312.448 223.211 312.162 221.795 312.47C221.574 312.472 221.354 312.47 221.134 312.464C219.901 312.425 218.937 312.005 218.993 310.661C219.713 309.846 219.461 310.103 220.685 309.772Z"/><path fill="#CD0D77" d="M220.685 309.772C222.369 310.451 221.713 310.759 221.795 312.47C221.574 312.472 221.354 312.47 221.134 312.464C219.901 312.425 218.937 312.005 218.993 310.661C219.713 309.846 219.461 310.103 220.685 309.772Z"/><path fill="#FB0498" d="M245.345 308.022C245.94 307.68 247.676 307.582 248.419 307.59L248.475 309.959C246.964 310.133 245.799 310.323 244.28 310.18C244.908 309.25 245.007 309.088 245.345 308.022Z"/><path fill="#504B52" d="M179.456 319.602C181.973 320.248 185.409 321.198 187.889 321.618C184.732 321.768 181.517 320.934 178.463 320.102L179.456 319.602Z"/><path fill="#504B52" d="M131.08 203.486C132.454 202.878 133.659 202.251 135.132 201.983L135.106 202.16L134.998 201.999L134.948 202.287L134.789 202.039L134.691 202.063L134.682 202.461C133.609 203.001 132.586 203.53 131.481 204.005L131.08 203.486Z"/><path fill="#040A06" d="M194.426 194.453C195.686 195.389 196.657 196.343 197.795 197.417C196.364 196.592 195.012 195.81 193.725 194.764L194.426 194.453Z"/></svg>